<svg id="Layer_1" enable-background="new 0 0 512 512" height="512" viewBox="0 0 512 512" width="512" xmlns="http://www.w3.org/2000/svg"><g><path d="m189.56 120.203c44.258 2.311 88.482 2.535 132.756.67-21.047 42.759-43.326 84.567-66.845 125.543-23.214-41.213-45.182-83.244-65.911-126.213z" fill="#4ba543"/><g><path d="m291.849 121.813c-16.334 33.145-33.417 65.713-51.236 97.77 4.899 8.98 9.844 17.929 14.858 26.832 23.519-40.976 45.799-82.784 66.845-125.543-10.158.429-20.313.733-30.467.941z" fill="#44963d"/></g><g><path d="m335.164 120.221c44.291-2.631 88.376-7.342 132.339-14.14-17.474 44.91-36.247 89.013-56.316 132.429-26.516-38.43-51.851-77.82-76.023-118.289z" fill="#2387eb"/><path d="m435.715 110.623c-13.41 34.25-27.579 68.032-42.502 101.4 5.932 8.878 11.919 17.71 17.974 26.487 20.069-43.416 38.842-87.519 56.316-132.429-10.588 1.637-21.184 3.147-31.788 4.542z" fill="#207bd6"/><path d="m44.46 103.941c43.919 7.244 87.976 12.401 132.256 15.48-24.475 40.224-50.107 79.357-76.913 117.516-19.749-43.618-38.198-87.91-55.343-132.996z" fill="#fece3f"/><g><path d="m147.315 117.051c-17.889 29.113-39.586 63.599-59.35 93.263 3.897 8.9 7.834 17.779 11.838 26.623 26.806-38.159 52.438-77.292 76.913-117.516-9.812-.682-19.61-1.483-29.401-2.37z" fill="#fdb720"/></g></g><path d="m511.875 98.324c-.748-4.074-4.655-6.769-8.731-6.022-164.082 30.137-330.361 29.294-494.214-2.501-4.065-.789-8.002 1.867-8.791 5.934s1.868 8.002 5.934 8.791c85.095 16.513 170.808 24.769 256.563 24.769 81.23 0 162.501-7.414 243.218-22.238 4.073-.75 6.77-4.66 6.021-8.733z" fill="#943f1c"/><path d="m189.56 338.687c44.258 2.311 88.482 2.535 132.756.67-21.047 42.759-43.326 84.567-66.845 125.543-23.214-41.213-45.182-83.244-65.911-126.213z" fill="#2387eb"/><g><path d="m291.849 340.297c-16.334 33.145-33.417 65.713-51.236 97.77 4.899 8.98 9.844 17.929 14.858 26.832 23.519-40.976 45.799-82.784 66.845-125.543-10.158.429-20.313.733-30.467.941z" fill="#207bd6"/></g><g><path d="m335.164 338.705c44.291-2.631 88.376-7.342 132.339-14.14-17.474 44.91-36.247 89.013-56.316 132.429-26.516-38.43-51.851-77.82-76.023-118.289z" fill="#fece3f"/><path d="m435.715 329.107c-13.41 34.25-27.579 68.032-42.502 101.4 5.932 8.878 11.919 17.71 17.974 26.487 20.069-43.416 38.842-87.52 56.316-132.429-10.588 1.637-21.184 3.146-31.788 4.542z" fill="#fdb720"/><path d="m44.46 322.425c43.919 7.244 87.976 12.401 132.256 15.48-24.475 40.224-50.107 79.357-76.913 117.516-19.749-43.618-38.198-87.91-55.343-132.996z" fill="#f13555"/><path d="m147.443 335.546c-19.324 31.353-39.283 62.115-59.883 92.328 4.028 9.21 8.101 18.397 12.243 27.546 26.806-38.159 52.438-77.291 76.913-117.516-9.769-.678-19.525-1.476-29.273-2.358z" fill="#de2142"/></g><path d="m511.875 316.809c-.748-4.074-4.655-6.766-8.731-6.022-164.082 30.136-330.361 29.293-494.214-2.502-4.065-.791-8.002 1.867-8.791 5.934s1.868 8.002 5.934 8.791c85.095 16.513 170.808 24.769 256.563 24.769 81.23 0 162.501-7.414 243.218-22.238 4.073-.75 6.77-4.659 6.021-8.732z" fill="#943f1c"/><g fill="#f25817"><path d="m335.164 216.282c-4.142 0-7.5 3.357-7.5 7.5v4.899c0 4.143 3.358 7.5 7.5 7.5s7.5-3.357 7.5-7.5v-4.899c0-4.142-3.358-7.5-7.5-7.5z"/><path d="m335.164 288.666c-4.142 0-7.5 3.357-7.5 7.5v4.9c0 4.143 3.358 7.5 7.5 7.5s7.5-3.357 7.5-7.5v-4.9c0-4.143-3.358-7.5-7.5-7.5z"/><path d="m359.052 246.065c1.918 0 3.836-.731 5.3-2.193l3.469-3.465c2.931-2.928 2.933-7.677.006-10.607s-7.676-2.932-10.606-.006l-3.469 3.465c-2.931 2.928-2.933 7.677-.006 10.607 1.465 1.466 3.385 2.199 5.306 2.199z"/><path d="m305.977 280.977-3.469 3.465c-2.931 2.927-2.934 7.676-.007 10.606 1.465 1.467 3.386 2.2 5.307 2.2 1.918 0 3.836-.731 5.3-2.193l3.469-3.465c2.931-2.927 2.934-7.676.007-10.606-2.928-2.932-7.677-2.933-10.607-.007z"/><path d="m373.852 254.924h-4.906c-4.142 0-7.5 3.357-7.5 7.5s3.358 7.5 7.5 7.5h4.906c4.142 0 7.5-3.357 7.5-7.5s-3.358-7.5-7.5-7.5z"/><path d="m308.882 262.424c0-4.143-3.358-7.5-7.5-7.5h-4.905c-4.142 0-7.5 3.357-7.5 7.5s3.358 7.5 7.5 7.5h4.905c4.142 0 7.5-3.358 7.5-7.5z"/><path d="m364.352 280.977c-2.931-2.926-7.68-2.924-10.606.006-2.927 2.931-2.925 7.68.006 10.607l3.469 3.465c1.464 1.462 3.382 2.193 5.3 2.193 1.921 0 3.842-.733 5.306-2.199 2.927-2.931 2.925-7.68-.006-10.607z"/><path d="m313.108 229.794c-2.931-2.928-7.68-2.925-10.606.007-2.927 2.931-2.924 7.68.007 10.606l3.469 3.465c1.464 1.463 3.382 2.193 5.3 2.193 1.921 0 3.842-.733 5.307-2.2 2.927-2.931 2.924-7.68-.007-10.606z"/></g><g fill="#f25817"><path d="m195.018 6.841c-4.142 0-7.5 3.357-7.5 7.5v4.899c0 4.143 3.358 7.5 7.5 7.5s7.5-3.357 7.5-7.5v-4.899c0-4.143-3.358-7.5-7.5-7.5z"/><path d="m195.018 79.225c-4.142 0-7.5 3.357-7.5 7.5v4.9c0 4.143 3.358 7.5 7.5 7.5s7.5-3.357 7.5-7.5v-4.9c0-4.143-3.358-7.5-7.5-7.5z"/><path d="m218.905 36.623c1.918 0 3.836-.731 5.3-2.193l3.469-3.465c2.931-2.928 2.933-7.677.006-10.607-2.927-2.929-7.676-2.933-10.606-.006l-3.469 3.465c-2.931 2.928-2.933 7.677-.006 10.607 1.465 1.466 3.386 2.199 5.306 2.199z"/><path d="m165.83 71.535-3.469 3.465c-2.931 2.928-2.933 7.677-.006 10.607 1.465 1.466 3.385 2.199 5.306 2.199 1.918 0 3.836-.731 5.3-2.193l3.469-3.465c2.931-2.928 2.933-7.677.006-10.607-2.927-2.929-7.676-2.933-10.606-.006z"/><path d="m233.706 45.482h-4.906c-4.142 0-7.5 3.357-7.5 7.5s3.358 7.5 7.5 7.5h4.906c4.142 0 7.5-3.357 7.5-7.5s-3.358-7.5-7.5-7.5z"/><path d="m168.736 52.982c0-4.143-3.358-7.5-7.5-7.5h-4.906c-4.142 0-7.5 3.357-7.5 7.5s3.358 7.5 7.5 7.5h4.906c4.142 0 7.5-3.357 7.5-7.5z"/><path d="m224.206 71.535c-2.931-2.927-7.68-2.923-10.606.006-2.927 2.931-2.925 7.68.006 10.607l3.469 3.465c1.464 1.462 3.382 2.193 5.3 2.193 1.921 0 3.842-.733 5.306-2.199 2.927-2.931 2.925-7.68-.006-10.607z"/><path d="m172.962 20.352c-2.931-2.927-7.68-2.923-10.606.006-2.927 2.931-2.925 7.68.006 10.607l3.469 3.465c1.464 1.462 3.382 2.193 5.3 2.193 1.921 0 3.842-.733 5.306-2.199 2.927-2.931 2.925-7.68-.006-10.607z"/></g><g fill="#fca309"><path d="m413.961 2.132 10.834 19.81c.376.688.941 1.253 1.629 1.629l19.81 10.834c2.842 1.554 2.842 5.636 0 7.191l-19.81 10.834c-.688.376-1.253.941-1.629 1.629l-10.834 19.81c-1.554 2.842-5.636 2.842-7.191 0l-10.834-19.81c-.376-.688-.941-1.253-1.629-1.629l-19.81-10.834c-2.842-1.554-2.842-5.636 0-7.191l19.81-10.834c.688-.376 1.253-.941 1.629-1.629l10.834-19.81c1.555-2.843 5.637-2.843 7.191 0z"/><path d="m180.311 438.132 10.834 19.81c.376.688.941 1.253 1.629 1.629l19.81 10.834c2.842 1.554 2.842 5.636 0 7.191l-19.81 10.834c-.688.376-1.253.941-1.629 1.629l-10.834 19.81c-1.554 2.842-5.636 2.842-7.191 0l-10.834-19.81c-.376-.688-.941-1.253-1.629-1.629l-19.81-10.834c-2.842-1.554-2.842-5.636 0-7.191l19.81-10.834c.688-.376 1.253-.941 1.629-1.629l10.834-19.81c1.555-2.843 5.637-2.843 7.191 0z"/></g></g></svg>